<mxfile host="app.diagrams.net" modified="2024-04-05T22:49:38.720Z" agent="Mozilla/5.0 (Windows NT 10.0; Win64; x64) AppleWebKit/537.36 (KHTML, like Gecko) Chrome/123.0.0.0 Safari/537.36 Edg/123.0.0.0" etag="_EvR27BZDTN-_sBHrOXh" version="24.2.2" type="github">
  <diagram name="Page-1" id="A8W0ZlJkRZm1EOQpJBz_">
    <mxGraphModel dx="834" dy="557" grid="1" gridSize="10" guides="1" tooltips="1" connect="1" arrows="1" fold="1" page="1" pageScale="1" pageWidth="850" pageHeight="1100" math="0" shadow="0">
      <root>
        <mxCell id="0" />
        <mxCell id="1" parent="0" />
        <mxCell id="siB9gwOaP5ev9PkQdLU9-88" value="" style="rounded=1;whiteSpace=wrap;html=1;direction=south;fillColor=#ffb20d;arcSize=7;strokeColor=#d79b00;rotation=90;" parent="1" vertex="1">
          <mxGeometry x="254.57" y="290" width="19.64" height="72.82" as="geometry" />
        </mxCell>
        <mxCell id="uq200lhuQBNym-ZLv9r4-198" value="x4 PCIe" style="text;html=1;align=center;verticalAlign=middle;resizable=0;points=[];autosize=1;strokeColor=none;fillColor=none;fontFamily=Helvetica;fontSize=11;fontColor=default;labelBackgroundColor=default;" parent="1" vertex="1">
          <mxGeometry x="234.39000000000004" y="230" width="60" height="30" as="geometry" />
        </mxCell>
        <mxCell id="siB9gwOaP5ev9PkQdLU9-84" value="Multi-Logical Device (MLD)" style="text;html=1;align=center;verticalAlign=middle;resizable=0;points=[];autosize=1;strokeColor=none;fillColor=none;fontFamily=Helvetica;fontSize=11;fontColor=default;labelBackgroundColor=default;" parent="1" vertex="1">
          <mxGeometry x="185.00000000000006" y="407.96000000000004" width="160" height="30" as="geometry" />
        </mxCell>
        <mxCell id="siB9gwOaP5ev9PkQdLU9-87" value="" style="group" parent="1" connectable="0" vertex="1">
          <mxGeometry x="224.99999999999994" y="314.4294117647059" width="80" height="93.5305882352942" as="geometry" />
        </mxCell>
        <mxCell id="siB9gwOaP5ev9PkQdLU9-89" value="" style="rounded=0;whiteSpace=wrap;html=1;strokeWidth=1;fillColor=#a2d460;strokeColor=#60a512;fontSize=10;gradientColor=#60a512;rotation=90;" parent="siB9gwOaP5ev9PkQdLU9-87" vertex="1">
          <mxGeometry x="-2.9999999999999716" y="10.530588235294204" width="86" height="80" as="geometry" />
        </mxCell>
        <mxCell id="siB9gwOaP5ev9PkQdLU9-90" value="" style="ellipse;whiteSpace=wrap;html=1;aspect=fixed;strokeWidth=3;shadow=0;strokeColor=#ffffff;rotation=90;" parent="siB9gwOaP5ev9PkQdLU9-87" vertex="1">
          <mxGeometry x="73.71000000000004" y="12.820588235294167" width="2" height="2" as="geometry" />
        </mxCell>
        <mxCell id="siB9gwOaP5ev9PkQdLU9-91" value="" style="ellipse;whiteSpace=wrap;html=1;aspect=fixed;strokeWidth=3;shadow=0;strokeColor=#ffffff;rotation=90;" parent="siB9gwOaP5ev9PkQdLU9-87" vertex="1">
          <mxGeometry x="73.71000000000004" y="85.82058823529417" width="2" height="2" as="geometry" />
        </mxCell>
        <mxCell id="siB9gwOaP5ev9PkQdLU9-92" value="" style="ellipse;whiteSpace=wrap;html=1;aspect=fixed;strokeWidth=3;shadow=0;strokeColor=#ffffff;rotation=90;" parent="siB9gwOaP5ev9PkQdLU9-87" vertex="1">
          <mxGeometry x="5.710000000000036" y="12.820588235294167" width="2" height="2" as="geometry" />
        </mxCell>
        <mxCell id="siB9gwOaP5ev9PkQdLU9-93" value="" style="ellipse;whiteSpace=wrap;html=1;aspect=fixed;strokeWidth=3;shadow=0;strokeColor=#ffffff;rotation=90;" parent="siB9gwOaP5ev9PkQdLU9-87" vertex="1">
          <mxGeometry x="102.71000000000004" y="93.53058823529416" width="2" height="2" as="geometry" />
        </mxCell>
        <mxCell id="siB9gwOaP5ev9PkQdLU9-94" value="" style="rounded=1;whiteSpace=wrap;html=1;fillColor=#dae8fc;strokeColor=#6c8ebf;" parent="siB9gwOaP5ev9PkQdLU9-87" vertex="1">
          <mxGeometry x="5" y="20" width="70" height="10" as="geometry" />
        </mxCell>
        <mxCell id="siB9gwOaP5ev9PkQdLU9-95" value="" style="rounded=1;whiteSpace=wrap;html=1;fillColor=#dae8fc;strokeColor=#6c8ebf;" parent="siB9gwOaP5ev9PkQdLU9-87" vertex="1">
          <mxGeometry x="5" y="30" width="70" height="10" as="geometry" />
        </mxCell>
        <mxCell id="siB9gwOaP5ev9PkQdLU9-96" value="" style="rounded=1;whiteSpace=wrap;html=1;fillColor=#dae8fc;strokeColor=#6c8ebf;" parent="siB9gwOaP5ev9PkQdLU9-87" vertex="1">
          <mxGeometry x="5" y="40" width="70" height="10" as="geometry" />
        </mxCell>
        <mxCell id="siB9gwOaP5ev9PkQdLU9-97" value="" style="rounded=1;whiteSpace=wrap;html=1;fillColor=#dae8fc;strokeColor=#6c8ebf;" parent="siB9gwOaP5ev9PkQdLU9-87" vertex="1">
          <mxGeometry x="5" y="50" width="70" height="10" as="geometry" />
        </mxCell>
        <mxCell id="siB9gwOaP5ev9PkQdLU9-98" value="" style="rounded=1;whiteSpace=wrap;html=1;fillColor=#dae8fc;strokeColor=#6c8ebf;" parent="siB9gwOaP5ev9PkQdLU9-87" vertex="1">
          <mxGeometry x="5" y="60" width="70" height="10" as="geometry" />
        </mxCell>
        <mxCell id="siB9gwOaP5ev9PkQdLU9-99" value="" style="rounded=1;whiteSpace=wrap;html=1;fillColor=#f8cecc;strokeColor=#b85450;" parent="siB9gwOaP5ev9PkQdLU9-87" vertex="1">
          <mxGeometry x="5" y="70" width="70" height="10" as="geometry" />
        </mxCell>
        <mxCell id="siB9gwOaP5ev9PkQdLU9-102" value="" style="group" parent="1" vertex="1" connectable="0">
          <mxGeometry x="240" y="100" width="134.58" height="85" as="geometry" />
        </mxCell>
        <mxCell id="uq200lhuQBNym-ZLv9r4-11" value="" style="group;fillColor=default;gradientColor=none;strokeColor=none;" parent="siB9gwOaP5ev9PkQdLU9-102" connectable="0" vertex="1">
          <mxGeometry x="24.79105263157895" width="84.99789473684211" height="85" as="geometry" />
        </mxCell>
        <mxCell id="uq200lhuQBNym-ZLv9r4-2" value="" style="rounded=1;whiteSpace=wrap;html=1;arcSize=7;fillColor=#1ba1e2;strokeColor=#006EAF;fontColor=#ffffff;" parent="uq200lhuQBNym-ZLv9r4-11" vertex="1">
          <mxGeometry width="84.99789473684211" height="85" as="geometry" />
        </mxCell>
        <mxCell id="uq200lhuQBNym-ZLv9r4-3" value="CPU" style="rounded=1;whiteSpace=wrap;html=1;fillColor=#cce5ff;strokeColor=#146994;shadow=1;" parent="uq200lhuQBNym-ZLv9r4-11" vertex="1">
          <mxGeometry x="7.083157894736843" y="7.083333333333334" width="70.83157894736843" height="70.83333333333334" as="geometry" />
        </mxCell>
        <mxCell id="uq200lhuQBNym-ZLv9r4-13" value="DRAM" style="pointerEvents=1;shadow=0;dashed=0;html=1;strokeColor=#d79b00;fillColor=#ffcd28;labelPosition=center;verticalLabelPosition=bottom;verticalAlign=top;align=center;outlineConnect=0;shape=mxgraph.veeam.ram;fillStyle=auto;direction=north;gradientColor=#ffa500;" parent="siB9gwOaP5ev9PkQdLU9-102" vertex="1">
          <mxGeometry y="3.541666666666667" width="21.24947368421053" height="77.91666666666667" as="geometry" />
        </mxCell>
        <mxCell id="uq200lhuQBNym-ZLv9r4-48" value="DRAM" style="pointerEvents=1;shadow=0;dashed=0;html=1;strokeColor=#d79b00;fillColor=#ffcd28;labelPosition=center;verticalLabelPosition=bottom;verticalAlign=top;align=center;outlineConnect=0;shape=mxgraph.veeam.ram;fillStyle=auto;direction=south;gradientColor=#ffa500;flipV=1;" parent="siB9gwOaP5ev9PkQdLU9-102" vertex="1">
          <mxGeometry x="113.33052631578948" y="3.541666666666667" width="21.24947368421053" height="77.91666666666667" as="geometry" />
        </mxCell>
        <mxCell id="siB9gwOaP5ev9PkQdLU9-106" value="" style="group" parent="1" vertex="1" connectable="0">
          <mxGeometry x="480" y="100" width="134.58" height="85" as="geometry" />
        </mxCell>
        <mxCell id="siB9gwOaP5ev9PkQdLU9-107" value="" style="group;fillColor=default;gradientColor=none;strokeColor=none;" parent="siB9gwOaP5ev9PkQdLU9-106" connectable="0" vertex="1">
          <mxGeometry x="24.79105263157895" width="84.99789473684211" height="85" as="geometry" />
        </mxCell>
        <mxCell id="siB9gwOaP5ev9PkQdLU9-108" value="" style="rounded=1;whiteSpace=wrap;html=1;arcSize=7;fillColor=#d80073;strokeColor=#A50040;fontColor=#ffffff;" parent="siB9gwOaP5ev9PkQdLU9-107" vertex="1">
          <mxGeometry width="84.99789473684211" height="85" as="geometry" />
        </mxCell>
        <mxCell id="siB9gwOaP5ev9PkQdLU9-109" value="CPU" style="rounded=1;whiteSpace=wrap;html=1;fillColor=#f8cecc;strokeColor=#b85450;shadow=1;" parent="siB9gwOaP5ev9PkQdLU9-107" vertex="1">
          <mxGeometry x="7.083157894736843" y="7.083333333333334" width="70.83157894736843" height="70.83333333333334" as="geometry" />
        </mxCell>
        <mxCell id="siB9gwOaP5ev9PkQdLU9-110" value="DRAM" style="pointerEvents=1;shadow=0;dashed=0;html=1;strokeColor=#d79b00;fillColor=#ffcd28;labelPosition=center;verticalLabelPosition=bottom;verticalAlign=top;align=center;outlineConnect=0;shape=mxgraph.veeam.ram;fillStyle=auto;direction=north;gradientColor=#ffa500;" parent="siB9gwOaP5ev9PkQdLU9-106" vertex="1">
          <mxGeometry y="3.541666666666667" width="21.24947368421053" height="77.91666666666667" as="geometry" />
        </mxCell>
        <mxCell id="siB9gwOaP5ev9PkQdLU9-111" value="DRAM" style="pointerEvents=1;shadow=0;dashed=0;html=1;strokeColor=#d79b00;fillColor=#ffcd28;labelPosition=center;verticalLabelPosition=bottom;verticalAlign=top;align=center;outlineConnect=0;shape=mxgraph.veeam.ram;fillStyle=auto;direction=south;gradientColor=#ffa500;flipV=1;" parent="siB9gwOaP5ev9PkQdLU9-106" vertex="1">
          <mxGeometry x="113.33052631578948" y="3.541666666666667" width="21.24947368421053" height="77.91666666666667" as="geometry" />
        </mxCell>
        <mxCell id="_lKrGzHT6yuWIF_zMZOo-2" value="" style="rounded=1;whiteSpace=wrap;html=1;direction=south;fillColor=#ffb20d;arcSize=7;strokeColor=#d79b00;rotation=90;" vertex="1" parent="1">
          <mxGeometry x="414.57" y="290" width="19.64" height="72.82" as="geometry" />
        </mxCell>
        <mxCell id="_lKrGzHT6yuWIF_zMZOo-3" value="Multi-Logical Device (MLD)" style="text;html=1;align=center;verticalAlign=middle;resizable=0;points=[];autosize=1;strokeColor=none;fillColor=none;fontFamily=Helvetica;fontSize=11;fontColor=default;labelBackgroundColor=default;" vertex="1" parent="1">
          <mxGeometry x="345.00000000000006" y="407.96000000000004" width="160" height="30" as="geometry" />
        </mxCell>
        <mxCell id="_lKrGzHT6yuWIF_zMZOo-4" value="" style="group" connectable="0" vertex="1" parent="1">
          <mxGeometry x="384.99999999999994" y="314.4294117647059" width="80" height="93.5305882352942" as="geometry" />
        </mxCell>
        <mxCell id="_lKrGzHT6yuWIF_zMZOo-5" value="" style="rounded=0;whiteSpace=wrap;html=1;strokeWidth=1;fillColor=#a2d460;strokeColor=#60a512;fontSize=10;gradientColor=#60a512;rotation=90;" vertex="1" parent="_lKrGzHT6yuWIF_zMZOo-4">
          <mxGeometry x="-2.9999999999999716" y="10.530588235294204" width="86" height="80" as="geometry" />
        </mxCell>
        <mxCell id="_lKrGzHT6yuWIF_zMZOo-6" value="" style="ellipse;whiteSpace=wrap;html=1;aspect=fixed;strokeWidth=3;shadow=0;strokeColor=#ffffff;rotation=90;" vertex="1" parent="_lKrGzHT6yuWIF_zMZOo-4">
          <mxGeometry x="73.71000000000004" y="12.820588235294167" width="2" height="2" as="geometry" />
        </mxCell>
        <mxCell id="_lKrGzHT6yuWIF_zMZOo-7" value="" style="ellipse;whiteSpace=wrap;html=1;aspect=fixed;strokeWidth=3;shadow=0;strokeColor=#ffffff;rotation=90;" vertex="1" parent="_lKrGzHT6yuWIF_zMZOo-4">
          <mxGeometry x="73.71000000000004" y="85.82058823529417" width="2" height="2" as="geometry" />
        </mxCell>
        <mxCell id="_lKrGzHT6yuWIF_zMZOo-8" value="" style="ellipse;whiteSpace=wrap;html=1;aspect=fixed;strokeWidth=3;shadow=0;strokeColor=#ffffff;rotation=90;" vertex="1" parent="_lKrGzHT6yuWIF_zMZOo-4">
          <mxGeometry x="5.710000000000036" y="12.820588235294167" width="2" height="2" as="geometry" />
        </mxCell>
        <mxCell id="_lKrGzHT6yuWIF_zMZOo-9" value="" style="ellipse;whiteSpace=wrap;html=1;aspect=fixed;strokeWidth=3;shadow=0;strokeColor=#ffffff;rotation=90;" vertex="1" parent="_lKrGzHT6yuWIF_zMZOo-4">
          <mxGeometry x="102.71000000000004" y="93.53058823529416" width="2" height="2" as="geometry" />
        </mxCell>
        <mxCell id="_lKrGzHT6yuWIF_zMZOo-10" value="" style="rounded=1;whiteSpace=wrap;html=1;fillColor=#dae8fc;strokeColor=#6c8ebf;" vertex="1" parent="_lKrGzHT6yuWIF_zMZOo-4">
          <mxGeometry x="5" y="20" width="70" height="10" as="geometry" />
        </mxCell>
        <mxCell id="_lKrGzHT6yuWIF_zMZOo-11" value="" style="rounded=1;whiteSpace=wrap;html=1;fillColor=#dae8fc;strokeColor=#6c8ebf;" vertex="1" parent="_lKrGzHT6yuWIF_zMZOo-4">
          <mxGeometry x="5" y="30" width="70" height="10" as="geometry" />
        </mxCell>
        <mxCell id="_lKrGzHT6yuWIF_zMZOo-12" value="" style="rounded=1;whiteSpace=wrap;html=1;fillColor=#dae8fc;strokeColor=#6c8ebf;" vertex="1" parent="_lKrGzHT6yuWIF_zMZOo-4">
          <mxGeometry x="5" y="40" width="70" height="10" as="geometry" />
        </mxCell>
        <mxCell id="_lKrGzHT6yuWIF_zMZOo-13" value="" style="rounded=1;whiteSpace=wrap;html=1;fillColor=#dae8fc;strokeColor=#6c8ebf;" vertex="1" parent="_lKrGzHT6yuWIF_zMZOo-4">
          <mxGeometry x="5" y="50" width="70" height="10" as="geometry" />
        </mxCell>
        <mxCell id="_lKrGzHT6yuWIF_zMZOo-14" value="" style="rounded=1;whiteSpace=wrap;html=1;fillColor=#dae8fc;strokeColor=#6c8ebf;" vertex="1" parent="_lKrGzHT6yuWIF_zMZOo-4">
          <mxGeometry x="5" y="60" width="70" height="10" as="geometry" />
        </mxCell>
        <mxCell id="_lKrGzHT6yuWIF_zMZOo-15" value="" style="rounded=1;whiteSpace=wrap;html=1;fillColor=#f8cecc;strokeColor=#b85450;" vertex="1" parent="_lKrGzHT6yuWIF_zMZOo-4">
          <mxGeometry x="5" y="70" width="70" height="10" as="geometry" />
        </mxCell>
        <mxCell id="_lKrGzHT6yuWIF_zMZOo-16" value="" style="rounded=1;whiteSpace=wrap;html=1;direction=south;fillColor=#ffb20d;arcSize=7;strokeColor=#d79b00;rotation=90;" vertex="1" parent="1">
          <mxGeometry x="574.5699999999999" y="290" width="19.64" height="72.82" as="geometry" />
        </mxCell>
        <mxCell id="_lKrGzHT6yuWIF_zMZOo-17" value="Multi-Logical Device (MLD)" style="text;html=1;align=center;verticalAlign=middle;resizable=0;points=[];autosize=1;strokeColor=none;fillColor=none;fontFamily=Helvetica;fontSize=11;fontColor=default;labelBackgroundColor=default;" vertex="1" parent="1">
          <mxGeometry x="505.00000000000006" y="407.96000000000004" width="160" height="30" as="geometry" />
        </mxCell>
        <mxCell id="_lKrGzHT6yuWIF_zMZOo-18" value="" style="group" connectable="0" vertex="1" parent="1">
          <mxGeometry x="545" y="314.4294117647059" width="80" height="93.5305882352942" as="geometry" />
        </mxCell>
        <mxCell id="_lKrGzHT6yuWIF_zMZOo-19" value="" style="rounded=0;whiteSpace=wrap;html=1;strokeWidth=1;fillColor=#a2d460;strokeColor=#60a512;fontSize=10;gradientColor=#60a512;rotation=90;" vertex="1" parent="_lKrGzHT6yuWIF_zMZOo-18">
          <mxGeometry x="-2.9999999999999716" y="10.530588235294204" width="86" height="80" as="geometry" />
        </mxCell>
        <mxCell id="_lKrGzHT6yuWIF_zMZOo-20" value="" style="ellipse;whiteSpace=wrap;html=1;aspect=fixed;strokeWidth=3;shadow=0;strokeColor=#ffffff;rotation=90;" vertex="1" parent="_lKrGzHT6yuWIF_zMZOo-18">
          <mxGeometry x="73.71000000000004" y="12.820588235294167" width="2" height="2" as="geometry" />
        </mxCell>
        <mxCell id="_lKrGzHT6yuWIF_zMZOo-21" value="" style="ellipse;whiteSpace=wrap;html=1;aspect=fixed;strokeWidth=3;shadow=0;strokeColor=#ffffff;rotation=90;" vertex="1" parent="_lKrGzHT6yuWIF_zMZOo-18">
          <mxGeometry x="73.71000000000004" y="85.82058823529417" width="2" height="2" as="geometry" />
        </mxCell>
        <mxCell id="_lKrGzHT6yuWIF_zMZOo-22" value="" style="ellipse;whiteSpace=wrap;html=1;aspect=fixed;strokeWidth=3;shadow=0;strokeColor=#ffffff;rotation=90;" vertex="1" parent="_lKrGzHT6yuWIF_zMZOo-18">
          <mxGeometry x="5.710000000000036" y="12.820588235294167" width="2" height="2" as="geometry" />
        </mxCell>
        <mxCell id="_lKrGzHT6yuWIF_zMZOo-23" value="" style="ellipse;whiteSpace=wrap;html=1;aspect=fixed;strokeWidth=3;shadow=0;strokeColor=#ffffff;rotation=90;" vertex="1" parent="_lKrGzHT6yuWIF_zMZOo-18">
          <mxGeometry x="102.71000000000004" y="93.53058823529416" width="2" height="2" as="geometry" />
        </mxCell>
        <mxCell id="_lKrGzHT6yuWIF_zMZOo-24" value="" style="rounded=1;whiteSpace=wrap;html=1;fillColor=#dae8fc;strokeColor=#6c8ebf;" vertex="1" parent="_lKrGzHT6yuWIF_zMZOo-18">
          <mxGeometry x="5" y="20" width="70" height="10" as="geometry" />
        </mxCell>
        <mxCell id="_lKrGzHT6yuWIF_zMZOo-25" value="" style="rounded=1;whiteSpace=wrap;html=1;fillColor=#dae8fc;strokeColor=#6c8ebf;" vertex="1" parent="_lKrGzHT6yuWIF_zMZOo-18">
          <mxGeometry x="5" y="30" width="70" height="10" as="geometry" />
        </mxCell>
        <mxCell id="_lKrGzHT6yuWIF_zMZOo-26" value="" style="rounded=1;whiteSpace=wrap;html=1;fillColor=#dae8fc;strokeColor=#6c8ebf;" vertex="1" parent="_lKrGzHT6yuWIF_zMZOo-18">
          <mxGeometry x="5" y="40" width="70" height="10" as="geometry" />
        </mxCell>
        <mxCell id="_lKrGzHT6yuWIF_zMZOo-27" value="" style="rounded=1;whiteSpace=wrap;html=1;fillColor=#dae8fc;strokeColor=#6c8ebf;" vertex="1" parent="_lKrGzHT6yuWIF_zMZOo-18">
          <mxGeometry x="5" y="50" width="70" height="10" as="geometry" />
        </mxCell>
        <mxCell id="_lKrGzHT6yuWIF_zMZOo-28" value="" style="rounded=1;whiteSpace=wrap;html=1;fillColor=#dae8fc;strokeColor=#6c8ebf;" vertex="1" parent="_lKrGzHT6yuWIF_zMZOo-18">
          <mxGeometry x="5" y="60" width="70" height="10" as="geometry" />
        </mxCell>
        <mxCell id="_lKrGzHT6yuWIF_zMZOo-29" value="" style="rounded=1;whiteSpace=wrap;html=1;fillColor=#f8cecc;strokeColor=#b85450;" vertex="1" parent="_lKrGzHT6yuWIF_zMZOo-18">
          <mxGeometry x="5" y="70" width="70" height="10" as="geometry" />
        </mxCell>
        <mxCell id="_lKrGzHT6yuWIF_zMZOo-31" value="" style="endArrow=none;html=1;rounded=0;entryX=0.5;entryY=1;entryDx=0;entryDy=0;exitX=0.5;exitY=1;exitDx=0;exitDy=0;strokeWidth=3;dashed=1;dashPattern=1 1;strokeColor=#1ba0e0;" edge="1" parent="1" source="siB9gwOaP5ev9PkQdLU9-88" target="uq200lhuQBNym-ZLv9r4-2">
          <mxGeometry width="50" height="50" relative="1" as="geometry">
            <mxPoint x="360" y="330" as="sourcePoint" />
            <mxPoint x="310" y="190" as="targetPoint" />
          </mxGeometry>
        </mxCell>
        <mxCell id="_lKrGzHT6yuWIF_zMZOo-32" value="" style="endArrow=none;html=1;rounded=0;entryX=0.5;entryY=1;entryDx=0;entryDy=0;exitX=0.5;exitY=1;exitDx=0;exitDy=0;strokeWidth=3;dashed=1;dashPattern=1 1;strokeColor=#1ba0e0;" edge="1" parent="1" source="_lKrGzHT6yuWIF_zMZOo-2" target="uq200lhuQBNym-ZLv9r4-2">
          <mxGeometry width="50" height="50" relative="1" as="geometry">
            <mxPoint x="309.61" y="314.84" as="sourcePoint" />
            <mxPoint x="352.61" y="182.84" as="targetPoint" />
          </mxGeometry>
        </mxCell>
        <mxCell id="_lKrGzHT6yuWIF_zMZOo-35" value="" style="endArrow=none;html=1;rounded=0;entryX=0.5;entryY=1;entryDx=0;entryDy=0;strokeWidth=3;dashed=1;dashPattern=1 1;exitX=0.5;exitY=1;exitDx=0;exitDy=0;strokeColor=#1ba0e0;" edge="1" parent="1" source="_lKrGzHT6yuWIF_zMZOo-16" target="uq200lhuQBNym-ZLv9r4-2">
          <mxGeometry width="50" height="50" relative="1" as="geometry">
            <mxPoint x="580" y="320" as="sourcePoint" />
            <mxPoint x="317" y="195" as="targetPoint" />
          </mxGeometry>
        </mxCell>
        <mxCell id="_lKrGzHT6yuWIF_zMZOo-36" value="" style="endArrow=none;html=1;rounded=0;entryX=0.5;entryY=1;entryDx=0;entryDy=0;strokeWidth=3;dashed=1;dashPattern=1 1;strokeColor=#d80073;exitX=0.5;exitY=1;exitDx=0;exitDy=0;" edge="1" parent="1" source="siB9gwOaP5ev9PkQdLU9-88" target="siB9gwOaP5ev9PkQdLU9-108">
          <mxGeometry width="50" height="50" relative="1" as="geometry">
            <mxPoint x="310" y="300" as="sourcePoint" />
            <mxPoint x="532.61" y="200" as="targetPoint" />
          </mxGeometry>
        </mxCell>
        <mxCell id="_lKrGzHT6yuWIF_zMZOo-37" value="" style="endArrow=none;html=1;rounded=0;strokeWidth=3;dashed=1;dashPattern=1 1;strokeColor=#d80073;exitX=0.5;exitY=1;exitDx=0;exitDy=0;entryX=0.5;entryY=1;entryDx=0;entryDy=0;" edge="1" parent="1" source="_lKrGzHT6yuWIF_zMZOo-2" target="siB9gwOaP5ev9PkQdLU9-108">
          <mxGeometry width="50" height="50" relative="1" as="geometry">
            <mxPoint x="297" y="347" as="sourcePoint" />
            <mxPoint x="554" y="210" as="targetPoint" />
          </mxGeometry>
        </mxCell>
        <mxCell id="_lKrGzHT6yuWIF_zMZOo-38" value="" style="endArrow=none;html=1;rounded=0;strokeWidth=3;dashed=1;dashPattern=1 1;strokeColor=#d80073;exitX=0.5;exitY=1;exitDx=0;exitDy=0;entryX=0.5;entryY=1;entryDx=0;entryDy=0;" edge="1" parent="1" source="_lKrGzHT6yuWIF_zMZOo-16" target="siB9gwOaP5ev9PkQdLU9-108">
          <mxGeometry width="50" height="50" relative="1" as="geometry">
            <mxPoint x="434" y="327" as="sourcePoint" />
            <mxPoint x="540" y="190" as="targetPoint" />
          </mxGeometry>
        </mxCell>
        <mxCell id="_lKrGzHT6yuWIF_zMZOo-39" value="x8 PCIe" style="text;html=1;align=center;verticalAlign=middle;resizable=0;points=[];autosize=1;strokeColor=none;fillColor=none;fontFamily=Helvetica;fontSize=11;fontColor=default;labelBackgroundColor=default;" vertex="1" parent="1">
          <mxGeometry x="210.00000000000006" y="290" width="60" height="30" as="geometry" />
        </mxCell>
      </root>
    </mxGraphModel>
  </diagram>
</mxfile>
